<mxfile host="Electron" modified="2024-03-01T22:41:19.900Z" agent="Mozilla/5.0 (Macintosh; Intel Mac OS X 10_15_7) AppleWebKit/537.36 (KHTML, like Gecko) draw.io/23.1.5 Chrome/120.0.6099.109 Electron/28.1.0 Safari/537.36" etag="iVXuoUyEtFm292fq0I8G" version="23.1.5" type="device">
  <diagram name="Page-1" id="Aw9oe8vOEeQzOmV9QsDD">
    <mxGraphModel dx="1363" dy="963" grid="1" gridSize="10" guides="1" tooltips="1" connect="1" arrows="1" fold="1" page="1" pageScale="1" pageWidth="850" pageHeight="1100" math="0" shadow="0">
      <root>
        <mxCell id="0" />
        <mxCell id="1" parent="0" />
        <mxCell id="EnEed_4CpaiW1BAmx-FP-1" value="" style="rounded=0;whiteSpace=wrap;html=1;" vertex="1" parent="1">
          <mxGeometry x="40" y="110" width="500" height="840" as="geometry" />
        </mxCell>
        <mxCell id="pA_ewfYiIkWrYzlfJd9I-6" value="" style="verticalLabelPosition=bottom;verticalAlign=top;html=1;shadow=0;dashed=0;strokeWidth=1;shape=mxgraph.android.phone2;strokeColor=#c0c0c0;" parent="1" vertex="1">
          <mxGeometry x="60" y="130" width="200" height="390" as="geometry" />
        </mxCell>
        <mxCell id="aH4c5Wjg07KuohovG9cp-1" value="" style="rounded=0;whiteSpace=wrap;html=1;" parent="1" vertex="1">
          <mxGeometry x="90" y="220" width="140" height="30" as="geometry" />
        </mxCell>
        <mxCell id="aH4c5Wjg07KuohovG9cp-2" value="User" style="text;html=1;align=left;verticalAlign=middle;whiteSpace=wrap;rounded=0;" parent="1" vertex="1">
          <mxGeometry x="90" y="190" width="60" height="30" as="geometry" />
        </mxCell>
        <mxCell id="aH4c5Wjg07KuohovG9cp-3" value="" style="rounded=0;whiteSpace=wrap;html=1;" parent="1" vertex="1">
          <mxGeometry x="90" y="280" width="140" height="30" as="geometry" />
        </mxCell>
        <mxCell id="aH4c5Wjg07KuohovG9cp-4" value="Password" style="text;html=1;align=left;verticalAlign=middle;whiteSpace=wrap;rounded=0;" parent="1" vertex="1">
          <mxGeometry x="90" y="250" width="60" height="30" as="geometry" />
        </mxCell>
        <mxCell id="aH4c5Wjg07KuohovG9cp-5" value="Enter" style="rounded=0;whiteSpace=wrap;html=1;fillColor=#dae8fc;strokeColor=#6c8ebf;" parent="1" vertex="1">
          <mxGeometry x="90" y="330" width="140" height="30" as="geometry" />
        </mxCell>
        <mxCell id="aH4c5Wjg07KuohovG9cp-6" value="" style="verticalLabelPosition=bottom;verticalAlign=top;html=1;shadow=0;dashed=0;strokeWidth=1;shape=mxgraph.android.phone2;strokeColor=#c0c0c0;" parent="1" vertex="1">
          <mxGeometry x="325" y="130" width="200" height="390" as="geometry" />
        </mxCell>
        <mxCell id="aH4c5Wjg07KuohovG9cp-7" style="edgeStyle=orthogonalEdgeStyle;rounded=0;orthogonalLoop=1;jettySize=auto;html=1;entryX=0.02;entryY=0.549;entryDx=0;entryDy=0;entryPerimeter=0;" parent="1" source="aH4c5Wjg07KuohovG9cp-5" target="aH4c5Wjg07KuohovG9cp-6" edge="1">
          <mxGeometry relative="1" as="geometry" />
        </mxCell>
        <mxCell id="aH4c5Wjg07KuohovG9cp-9" value="" style="shape=table;startSize=0;container=1;collapsible=0;childLayout=tableLayout;fontSize=14;" parent="1" vertex="1">
          <mxGeometry x="335" y="440" width="180" height="40" as="geometry" />
        </mxCell>
        <mxCell id="aH4c5Wjg07KuohovG9cp-10" value="" style="shape=tableRow;horizontal=0;startSize=0;swimlaneHead=0;swimlaneBody=0;strokeColor=inherit;top=0;left=0;bottom=0;right=0;collapsible=0;dropTarget=0;fillColor=none;points=[[0,0.5],[1,0.5]];portConstraint=eastwest;fontSize=16;" parent="aH4c5Wjg07KuohovG9cp-9" vertex="1">
          <mxGeometry width="180" height="40" as="geometry" />
        </mxCell>
        <mxCell id="aH4c5Wjg07KuohovG9cp-11" value="&amp;lt;icon&amp;gt;&lt;br&gt;Home" style="shape=partialRectangle;html=1;whiteSpace=wrap;connectable=0;strokeColor=#666666;overflow=hidden;fillColor=#f5f5f5;top=0;left=0;bottom=0;right=0;pointerEvents=1;fontSize=10;fontStyle=1;fontColor=#333333;" parent="aH4c5Wjg07KuohovG9cp-10" vertex="1">
          <mxGeometry width="60" height="40" as="geometry">
            <mxRectangle width="60" height="40" as="alternateBounds" />
          </mxGeometry>
        </mxCell>
        <mxCell id="aH4c5Wjg07KuohovG9cp-12" value="&amp;lt;icon&amp;gt;&lt;br&gt;User Details" style="shape=partialRectangle;html=1;whiteSpace=wrap;connectable=0;strokeColor=inherit;overflow=hidden;fillColor=none;top=0;left=0;bottom=0;right=0;pointerEvents=1;fontSize=10;" parent="aH4c5Wjg07KuohovG9cp-10" vertex="1">
          <mxGeometry x="60" width="60" height="40" as="geometry">
            <mxRectangle width="60" height="40" as="alternateBounds" />
          </mxGeometry>
        </mxCell>
        <mxCell id="aH4c5Wjg07KuohovG9cp-22" value="&amp;lt;icon&amp;gt;&lt;br&gt;About" style="shape=partialRectangle;html=1;whiteSpace=wrap;connectable=0;strokeColor=inherit;overflow=hidden;fillColor=none;top=0;left=0;bottom=0;right=0;pointerEvents=1;fontSize=10;" parent="aH4c5Wjg07KuohovG9cp-10" vertex="1">
          <mxGeometry x="120" width="60" height="40" as="geometry">
            <mxRectangle width="60" height="40" as="alternateBounds" />
          </mxGeometry>
        </mxCell>
        <mxCell id="aH4c5Wjg07KuohovG9cp-25" value="Welcome &amp;lt;YOUR NAME&amp;gt; to this new project." style="text;html=1;align=center;verticalAlign=middle;whiteSpace=wrap;rounded=0;" parent="1" vertex="1">
          <mxGeometry x="340" y="190" width="170" height="60" as="geometry" />
        </mxCell>
        <mxCell id="aH4c5Wjg07KuohovG9cp-26" value="Let&#39;s navigate by using the bottom tabs." style="text;html=1;align=center;verticalAlign=middle;whiteSpace=wrap;rounded=0;" parent="1" vertex="1">
          <mxGeometry x="340" y="265" width="170" height="60" as="geometry" />
        </mxCell>
        <mxCell id="aH4c5Wjg07KuohovG9cp-35" value="" style="verticalLabelPosition=bottom;verticalAlign=top;html=1;shadow=0;dashed=0;strokeWidth=1;shape=mxgraph.android.phone2;strokeColor=#c0c0c0;" parent="1" vertex="1">
          <mxGeometry x="60" y="540" width="200" height="390" as="geometry" />
        </mxCell>
        <mxCell id="aH4c5Wjg07KuohovG9cp-36" value="" style="shape=table;startSize=0;container=1;collapsible=0;childLayout=tableLayout;fontSize=14;" parent="1" vertex="1">
          <mxGeometry x="70" y="850" width="180" height="40" as="geometry" />
        </mxCell>
        <mxCell id="aH4c5Wjg07KuohovG9cp-37" value="" style="shape=tableRow;horizontal=0;startSize=0;swimlaneHead=0;swimlaneBody=0;strokeColor=inherit;top=0;left=0;bottom=0;right=0;collapsible=0;dropTarget=0;fillColor=none;points=[[0,0.5],[1,0.5]];portConstraint=eastwest;fontSize=16;" parent="aH4c5Wjg07KuohovG9cp-36" vertex="1">
          <mxGeometry width="180" height="40" as="geometry" />
        </mxCell>
        <mxCell id="aH4c5Wjg07KuohovG9cp-38" value="&amp;lt;icon&amp;gt;&lt;br&gt;Home" style="shape=partialRectangle;html=1;whiteSpace=wrap;connectable=0;strokeColor=inherit;overflow=hidden;fillColor=none;top=0;left=0;bottom=0;right=0;pointerEvents=1;fontSize=10;fontStyle=0" parent="aH4c5Wjg07KuohovG9cp-37" vertex="1">
          <mxGeometry width="60" height="40" as="geometry">
            <mxRectangle width="60" height="40" as="alternateBounds" />
          </mxGeometry>
        </mxCell>
        <mxCell id="aH4c5Wjg07KuohovG9cp-39" value="&amp;lt;icon&amp;gt;&lt;br&gt;User Details" style="shape=partialRectangle;html=1;whiteSpace=wrap;connectable=0;strokeColor=#666666;overflow=hidden;fillColor=#f5f5f5;top=0;left=0;bottom=0;right=0;pointerEvents=1;fontSize=10;fontStyle=1;fontColor=#333333;" parent="aH4c5Wjg07KuohovG9cp-37" vertex="1">
          <mxGeometry x="60" width="60" height="40" as="geometry">
            <mxRectangle width="60" height="40" as="alternateBounds" />
          </mxGeometry>
        </mxCell>
        <mxCell id="aH4c5Wjg07KuohovG9cp-40" value="&amp;lt;icon&amp;gt;&lt;br&gt;About" style="shape=partialRectangle;html=1;whiteSpace=wrap;connectable=0;strokeColor=inherit;overflow=hidden;fillColor=none;top=0;left=0;bottom=0;right=0;pointerEvents=1;fontSize=10;" parent="aH4c5Wjg07KuohovG9cp-37" vertex="1">
          <mxGeometry x="120" width="60" height="40" as="geometry">
            <mxRectangle width="60" height="40" as="alternateBounds" />
          </mxGeometry>
        </mxCell>
        <mxCell id="aH4c5Wjg07KuohovG9cp-41" value="&lt;b&gt;Name&lt;/b&gt;&lt;br&gt;&lt;div style=&quot;&quot;&gt;&lt;span style=&quot;background-color: initial;&quot;&gt;&amp;lt;YOUR COMPLETE NAME&amp;gt;&lt;/span&gt;&lt;/div&gt;&lt;div style=&quot;&quot;&gt;&lt;b style=&quot;border-color: var(--border-color);&quot;&gt;Age&lt;/b&gt;&lt;br style=&quot;border-color: var(--border-color);&quot;&gt;&lt;div style=&quot;border-color: var(--border-color);&quot;&gt;&amp;lt;YOUR AGE&amp;gt;&lt;/div&gt;&lt;div style=&quot;border-color: var(--border-color);&quot;&gt;&lt;b style=&quot;border-color: var(--border-color);&quot;&gt;Email&lt;/b&gt;&lt;br style=&quot;border-color: var(--border-color);&quot;&gt;&lt;div style=&quot;border-color: var(--border-color);&quot;&gt;&amp;lt;YOUR EMAIL&amp;gt;&lt;/div&gt;&lt;/div&gt;&lt;/div&gt;" style="text;html=1;align=left;verticalAlign=middle;whiteSpace=wrap;rounded=0;spacing=2;" parent="1" vertex="1">
          <mxGeometry x="75" y="600" width="170" height="170" as="geometry" />
        </mxCell>
        <mxCell id="aH4c5Wjg07KuohovG9cp-50" value="" style="verticalLabelPosition=bottom;verticalAlign=top;html=1;shadow=0;dashed=0;strokeWidth=1;shape=mxgraph.android.phone2;strokeColor=#c0c0c0;" parent="1" vertex="1">
          <mxGeometry x="325" y="540" width="200" height="390" as="geometry" />
        </mxCell>
        <mxCell id="aH4c5Wjg07KuohovG9cp-51" value="" style="shape=table;startSize=0;container=1;collapsible=0;childLayout=tableLayout;fontSize=14;" parent="1" vertex="1">
          <mxGeometry x="335" y="850" width="180" height="40" as="geometry" />
        </mxCell>
        <mxCell id="aH4c5Wjg07KuohovG9cp-52" value="" style="shape=tableRow;horizontal=0;startSize=0;swimlaneHead=0;swimlaneBody=0;strokeColor=inherit;top=0;left=0;bottom=0;right=0;collapsible=0;dropTarget=0;fillColor=none;points=[[0,0.5],[1,0.5]];portConstraint=eastwest;fontSize=16;" parent="aH4c5Wjg07KuohovG9cp-51" vertex="1">
          <mxGeometry width="180" height="40" as="geometry" />
        </mxCell>
        <mxCell id="aH4c5Wjg07KuohovG9cp-53" value="&amp;lt;icon&amp;gt;&lt;br&gt;Home" style="shape=partialRectangle;html=1;whiteSpace=wrap;connectable=0;strokeColor=inherit;overflow=hidden;fillColor=none;top=0;left=0;bottom=0;right=0;pointerEvents=1;fontSize=10;fontStyle=0" parent="aH4c5Wjg07KuohovG9cp-52" vertex="1">
          <mxGeometry width="60" height="40" as="geometry">
            <mxRectangle width="60" height="40" as="alternateBounds" />
          </mxGeometry>
        </mxCell>
        <mxCell id="aH4c5Wjg07KuohovG9cp-54" value="&amp;lt;icon&amp;gt;&lt;br&gt;User Details" style="shape=partialRectangle;html=1;whiteSpace=wrap;connectable=0;overflow=hidden;top=0;left=0;bottom=0;right=0;pointerEvents=1;fontSize=10;fontStyle=0;" parent="aH4c5Wjg07KuohovG9cp-52" vertex="1">
          <mxGeometry x="60" width="60" height="40" as="geometry">
            <mxRectangle width="60" height="40" as="alternateBounds" />
          </mxGeometry>
        </mxCell>
        <mxCell id="aH4c5Wjg07KuohovG9cp-55" value="&amp;lt;icon&amp;gt;&lt;br&gt;About" style="shape=partialRectangle;html=1;whiteSpace=wrap;connectable=0;strokeColor=#666666;overflow=hidden;fillColor=#f5f5f5;top=0;left=0;bottom=0;right=0;pointerEvents=1;fontSize=10;fontStyle=1;fontColor=#333333;" parent="aH4c5Wjg07KuohovG9cp-52" vertex="1">
          <mxGeometry x="120" width="60" height="40" as="geometry">
            <mxRectangle width="60" height="40" as="alternateBounds" />
          </mxGeometry>
        </mxCell>
        <mxCell id="aH4c5Wjg07KuohovG9cp-56" value="&lt;b&gt;About&lt;/b&gt;&lt;br&gt;&lt;div style=&quot;&quot;&gt;&lt;span style=&quot;background-color: initial;&quot;&gt;Developed by &amp;lt;YOUR COMPLETE NAME&amp;gt;&lt;/span&gt;&lt;/div&gt;&lt;div style=&quot;&quot;&gt;&lt;b style=&quot;border-color: var(--border-color);&quot;&gt;Version&lt;/b&gt;&lt;br style=&quot;border-color: var(--border-color);&quot;&gt;&lt;div style=&quot;border-color: var(--border-color);&quot;&gt;MyApp version 1.0&lt;/div&gt;&lt;/div&gt;" style="text;html=1;align=left;verticalAlign=middle;whiteSpace=wrap;rounded=0;spacing=2;" parent="1" vertex="1">
          <mxGeometry x="340" y="600" width="170" height="170" as="geometry" />
        </mxCell>
      </root>
    </mxGraphModel>
  </diagram>
</mxfile>
